<svg version="1.1" viewBox="0.0 0.0 457.8267716535433 555.7427821522309" fill="none" stroke="none" stroke-linecap="square" stroke-miterlimit="10" xmlns:xlink="http://www.w3.org/1999/xlink" xmlns="http://www.w3.org/2000/svg"><clipPath id="p.0"><path d="m0 0l457.82678 0l0 555.7428l-457.82678 0l0 -555.7428z" clip-rule="nonzero"/></clipPath><g clip-path="url(#p.0)"><path fill="#000000" fill-opacity="0.0" d="m0 0l457.82678 0l0 555.7428l-457.82678 0z" fill-rule="evenodd"/><g filter="url(#shadowFilter-p.1)"><use xlink:href="#p.1" transform="matrix(1.0 0.0 0.0 1.0 1.9225233183132382 -0.5512748177595964)"/></g><defs><filter id="shadowFilter-p.1" filterUnits="userSpaceOnUse"><feGaussianBlur in="SourceAlpha" stdDeviation="5.0" result="blur"/><feComponentTransfer in="blur" color-interpolation-filters="sRGB"><feFuncR type="linear" slope="0" intercept="0.0"/><feFuncG type="linear" slope="0" intercept="0.0"/><feFuncB type="linear" slope="0" intercept="0.0"/><feFuncA type="linear" slope="0.7" intercept="0"/></feComponentTransfer></filter></defs><g id="p.1"><path fill="#000000" fill-opacity="0.0" d="m198.19223 467.7838c0 28.53543 35.874023 57.07086 71.74805 57.07086" fill-rule="evenodd"/><path stroke="#434343" stroke-width="4.0" stroke-linejoin="round" stroke-linecap="butt" d="m198.19223 467.7838c0 28.53543 35.874023 57.07086 71.74805 57.07086" fill-rule="evenodd"/></g><g filter="url(#shadowFilter-p.2)"><use xlink:href="#p.2" transform="matrix(1.0 0.0 0.0 1.0 1.9225233183132382 -0.5512748177595964)"/></g><defs><filter id="shadowFilter-p.2" filterUnits="userSpaceOnUse"><feGaussianBlur in="SourceAlpha" stdDeviation="5.0" result="blur"/><feComponentTransfer in="blur" color-interpolation-filters="sRGB"><feFuncR type="linear" slope="0" intercept="0.0"/><feFuncG type="linear" slope="0" intercept="0.0"/><feFuncB type="linear" slope="0" intercept="0.0"/><feFuncA type="linear" slope="0.7" intercept="0"/></feComponentTransfer></filter></defs><g id="p.2"><path fill="#434343" d="m254.36546 430.25626l0 0c0 13.409912 -10.710678 25.80075 -28.09607 32.50345c-17.385391 6.7026978 -38.803146 6.6985474 -56.18268 -0.010925293c-17.379532 -6.7094727 -28.079407 -19.104492 -28.067703 -32.514404l56.173218 0.021881104z" fill-rule="evenodd"/><path stroke="#434343" stroke-width="1.0" stroke-linejoin="round" stroke-linecap="butt" d="m254.36546 430.25626l0 0c0 13.409912 -10.710678 25.80075 -28.09607 32.50345c-17.385391 6.7026978 -38.803146 6.6985474 -56.18268 -0.010925293c-17.379532 -6.7094727 -28.079407 -19.104492 -28.067703 -32.514404l56.173218 0.021881104z" fill-rule="evenodd"/></g><g filter="url(#shadowFilter-p.3)"><use xlink:href="#p.3" transform="matrix(1.0 0.0 0.0 1.0 1.9225233183132382 -0.5512748177595964)"/></g><defs><filter id="shadowFilter-p.3" filterUnits="userSpaceOnUse"><feGaussianBlur in="SourceAlpha" stdDeviation="5.0" result="blur"/><feComponentTransfer in="blur" color-interpolation-filters="sRGB"><feFuncR type="linear" slope="0" intercept="0.0"/><feFuncG type="linear" slope="0" intercept="0.0"/><feFuncB type="linear" slope="0" intercept="0.0"/><feFuncA type="linear" slope="0.7" intercept="0"/></feComponentTransfer></filter></defs><g id="p.3"><path fill="#434343" d="m135.3765 416.8847l0 0c0 -4.8879395 3.9624481 -8.850403 8.850388 -8.850403l107.93701 0c2.3472595 0 4.598404 0.9324646 6.2581635 2.5922241c1.65979 1.65979 2.5922241 3.9109192 2.5922241 6.2581787l0 0l0 0c0 4.8879395 -3.9624634 8.850403 -8.850388 8.850403l-107.93701 0c-4.8879395 0 -8.850388 -3.9624634 -8.850388 -8.850403z" fill-rule="evenodd"/><path stroke="#434343" stroke-width="1.0" stroke-linejoin="round" stroke-linecap="butt" d="m135.3765 416.8847l0 0c0 -4.8879395 3.9624481 -8.850403 8.850388 -8.850403l107.93701 0c2.3472595 0 4.598404 0.9324646 6.2581635 2.5922241c1.65979 1.65979 2.5922241 3.9109192 2.5922241 6.2581787l0 0l0 0c0 4.8879395 -3.9624634 8.850403 -8.850388 8.850403l-107.93701 0c-4.8879395 0 -8.850388 -3.9624634 -8.850388 -8.850403z" fill-rule="evenodd"/></g><g filter="url(#shadowFilter-p.4)"><use xlink:href="#p.4" transform="matrix(1.0 0.0 0.0 1.0 1.9225233183132382 -0.5512748177595964)"/></g><defs><filter id="shadowFilter-p.4" filterUnits="userSpaceOnUse"><feGaussianBlur in="SourceAlpha" stdDeviation="5.0" result="blur"/><feComponentTransfer in="blur" color-interpolation-filters="sRGB"><feFuncR type="linear" slope="0" intercept="0.0"/><feFuncG type="linear" slope="0" intercept="0.0"/><feFuncB type="linear" slope="0" intercept="0.0"/><feFuncA type="linear" slope="0.7" intercept="0"/></feComponentTransfer></filter></defs><g id="p.4"><path fill="#434343" d="m127.51799 392.72845l0 0c0 -4.8879395 3.9624481 -8.850403 8.850388 -8.850403l123.653534 0c2.34729 0 4.598419 0.9324341 6.2581787 2.5922241c1.65979 1.6597595 2.5922241 3.9108887 2.5922241 6.2581787l0 0l0 0c0 4.8879395 -3.9624634 8.850372 -8.850403 8.850372l-123.653534 0l0 0c-4.8879395 0 -8.850388 -3.9624329 -8.850388 -8.850372z" fill-rule="evenodd"/><path stroke="#434343" stroke-width="1.0" stroke-linejoin="round" stroke-linecap="butt" d="m127.51799 392.72845l0 0c0 -4.8879395 3.9624481 -8.850403 8.850388 -8.850403l123.653534 0c2.34729 0 4.598419 0.9324341 6.2581787 2.5922241c1.65979 1.6597595 2.5922241 3.9108887 2.5922241 6.2581787l0 0l0 0c0 4.8879395 -3.9624634 8.850372 -8.850403 8.850372l-123.653534 0l0 0c-4.8879395 0 -8.850388 -3.9624329 -8.850388 -8.850372z" fill-rule="evenodd"/></g><g filter="url(#shadowFilter-p.5)"><use xlink:href="#p.5" transform="matrix(1.0 0.0 0.0 1.0 7.564148750205052 -2.6045456933850066)"/></g><defs><filter id="shadowFilter-p.5" filterUnits="userSpaceOnUse"><feGaussianBlur in="SourceAlpha" stdDeviation="7.0" result="blur"/><feComponentTransfer in="blur" color-interpolation-filters="sRGB"><feFuncR type="linear" slope="0" intercept="0.0"/><feFuncG type="linear" slope="0" intercept="0.0"/><feFuncB type="linear" slope="0" intercept="0.0"/><feFuncA type="linear" slope="0.5" intercept="0"/></feComponentTransfer></filter></defs><g id="p.5"><defs><linearGradient id="p.6" gradientUnits="userSpaceOnUse" gradientTransform="matrix(13.052574076473006 2.4365690163289204 -2.4365690163289204 13.052574076473006 0.0 0.0)" spreadMethod="pad" x1="28.41269228484971" y1="12.015015761253538" x2="28.412837448765288" y2="-1.037558314412247"><stop offset="0.0" stop-color="#004573"/><stop offset="0.5" stop-color="#004573"/><stop offset="0.75" stop-color="#0061a1"/><stop offset="0.99999994" stop-color="#5093c0"/><stop offset="1.0" stop-color="#737373"/></linearGradient></defs><path fill="url(#p.6)" d="m322.53375 196.97346c15.161865 -4.49382 13.960297 -7.6470795 19.389587 -14.934021c5.429291 -7.286957 12.05368 -19.233292 13.186218 -28.787704c1.1325073 -9.554398 -4.2312317 -19.183655 -6.3910217 -28.538757c-2.1598206 -9.355103 -4.852295 -21.086678 -6.56781 -27.59188c-1.7154846 -6.5051956 0.40615845 -7.4129715 -3.7251282 -11.439301c-4.131317 -4.026329 -16.931366 -8.692345 -21.062683 -12.718674c-4.1312866 -4.0263367 -0.51898193 -8.561989 -3.7251282 -11.439308c-3.2061768 -2.8773155 -10.978149 -2.2113037 -15.511841 -5.8245926c-4.5336914 -3.6132889 -4.2769165 -12.843464 -11.690338 -15.855137c-7.4134216 -3.011673 -24.318176 -2.2611961 -32.79016 -2.214901c-8.47197 0.046295166 -13.451172 3.1867142 -18.041656 2.4926605c-4.5904846 -0.69404984 -5.648697 -7.2398643 -9.501236 -6.6569824c-3.852539 0.58288574 -5.3639984 2.579544 -13.613983 10.154289c-8.249985 7.5747414 -36.019943 15.086929 -35.885956 35.294167c0.13400269 20.207237 24.298355 64.26775 36.689926 85.94926c12.391586 21.681503 19.452682 38.787994 37.659546 44.1398c18.206879 5.351822 56.4198 -7.535095 71.581665 -12.028915z" fill-rule="evenodd"/></g><path fill="#00365b" d="m274.22748 153.16164c-1.6001892 -0.63998413 17.759827 -13.120743 27.839874 -17.280838c10.080078 -4.1601105 31.040253 -8.319778 32.64044 -7.6797943c1.6001587 0.63998413 -12.95932 7.3595886 -23.039368 11.519684c-10.080048 4.1601105 -35.84079 14.080933 -37.44095 13.4409485z" fill-rule="evenodd"/><path fill="#00365b" d="m245.48688 181.5199c-0.16011047 -0.6399689 18.719604 -38.238846 26.879272 -49.918625c8.159668 -11.679794 13.278656 -14.880142 22.078735 -20.16011c8.800079 -5.2799606 30.40158 -12.319771 30.721771 -11.519684c0.32022095 0.800087 -20.160522 10.400261 -28.800507 16.320213c-8.639984 5.919945 -14.559509 8.319771 -23.039368 19.19947c-8.479889 10.8797 -27.679794 46.71872 -27.839905 46.078735z" fill-rule="evenodd"/><g filter="url(#shadowFilter-p.7)"><use xlink:href="#p.7" transform="matrix(1.0 0.0 0.0 1.0 7.564148750205052 -2.6045456933850066)"/></g><defs><filter id="shadowFilter-p.7" filterUnits="userSpaceOnUse"><feGaussianBlur in="SourceAlpha" stdDeviation="7.0" result="blur"/><feComponentTransfer in="blur" color-interpolation-filters="sRGB"><feFuncR type="linear" slope="0" intercept="0.0"/><feFuncG type="linear" slope="0" intercept="0.0"/><feFuncB type="linear" slope="0" intercept="0.0"/><feFuncA type="linear" slope="0.5" intercept="0"/></feComponentTransfer></filter></defs><g id="p.7"><path fill="#00365b" d="m215.5094 155.03346c-1.120285 0.8000946 7.3595886 -41.43963 11.519684 -55.679787c4.1601105 -14.240158 9.280853 -22.72091 13.4409485 -29.761154c4.1601105 -7.040245 10.7196045 -14.240158 11.519684 -12.480316c0.8000946 1.7598419 -3.6793518 16.79921 -6.719162 23.039368c-3.039795 6.240158 -6.5594788 1.9212646 -11.519684 14.401573c-4.96019 12.480316 -17.12117 59.680237 -18.24147 60.480316z" fill-rule="evenodd"/></g><path fill="#00365b" d="m227.34186 162.00546c-2.0800476 1.2799683 14.400711 -32.00087 21.120743 -45.120728c6.7200317 -13.119865 12.479446 -24.638672 19.199478 -33.598427c6.7200317 -8.959755 19.680664 -20.479877 21.120728 -20.160107c1.4400635 0.31977463 -7.840332 14.3989525 -12.480316 22.07874c-4.639984 7.6797943 -7.199463 11.199913 -15.359589 24.0c-8.160095 12.800087 -31.52098 51.52057 -33.601044 52.80052z" fill-rule="evenodd"/><g filter="url(#shadowFilter-p.8)"><use xlink:href="#p.8" transform="matrix(1.0 0.0 0.0 1.0 1.9225233183132382 -0.5512748177595964)"/></g><defs><filter id="shadowFilter-p.8" filterUnits="userSpaceOnUse"><feGaussianBlur in="SourceAlpha" stdDeviation="5.0" result="blur"/><feComponentTransfer in="blur" color-interpolation-filters="sRGB"><feFuncR type="linear" slope="0" intercept="0.0"/><feFuncG type="linear" slope="0" intercept="0.0"/><feFuncB type="linear" slope="0" intercept="0.0"/><feFuncA type="linear" slope="0.7" intercept="0"/></feComponentTransfer></filter></defs><g id="p.8"><path fill="#434343" d="m120.99344 368.57217l0 0c0 -4.8879395 3.9624557 -8.850403 8.850388 -8.850403l136.66142 0c2.3472595 0 4.5983887 0.9324646 6.2581787 2.5922241c1.6597595 1.65979 2.5922241 3.9109192 2.5922241 6.2581787l0 0l0 0c0 4.8879395 -3.9624634 8.850403 -8.850403 8.850403l-136.66142 0c-4.887932 0 -8.850388 -3.9624634 -8.850388 -8.850403z" fill-rule="evenodd"/><path stroke="#434343" stroke-width="1.0" stroke-linejoin="round" stroke-linecap="butt" d="m120.99344 368.57217l0 0c0 -4.8879395 3.9624557 -8.850403 8.850388 -8.850403l136.66142 0c2.3472595 0 4.5983887 0.9324646 6.2581787 2.5922241c1.6597595 1.65979 2.5922241 3.9109192 2.5922241 6.2581787l0 0l0 0c0 4.8879395 -3.9624634 8.850403 -8.850403 8.850403l-136.66142 0c-4.887932 0 -8.850388 -3.9624634 -8.850388 -8.850403z" fill-rule="evenodd"/></g><g filter="url(#shadowFilter-p.9)"><use xlink:href="#p.9" transform="matrix(1.0 0.0 0.0 1.0 9.702957113270998 -2.4192190896181924)"/></g><defs><filter id="shadowFilter-p.9" filterUnits="userSpaceOnUse"><feGaussianBlur in="SourceAlpha" stdDeviation="6.0" result="blur"/><feComponentTransfer in="blur" color-interpolation-filters="sRGB"><feFuncR type="linear" slope="0" intercept="0.0"/><feFuncG type="linear" slope="0" intercept="0.0"/><feFuncB type="linear" slope="0" intercept="0.0"/><feFuncA type="linear" slope="0.45" intercept="0"/></feComponentTransfer></filter></defs><g id="p.9"><defs><linearGradient id="p.10" gradientUnits="userSpaceOnUse" gradientTransform="matrix(13.714125592806957 -0.7609039137024326 0.7609039137024326 13.714125592806957 0.0 0.0)" spreadMethod="pad" x1="18.362403335269445" y1="16.42977358740277" x2="18.362554117745017" y2="2.7156479954247197"><stop offset="0.0" stop-color="#004573"/><stop offset="0.5" stop-color="#004573"/><stop offset="0.75" stop-color="#0061a1"/><stop offset="0.99999994" stop-color="#5093c0"/><stop offset="1.0" stop-color="#737373"/></linearGradient></defs><path fill="url(#p.10)" d="m256.33585 129.09581c4.527466 -13.712425 2.549347 -11.840065 1.0142517 -16.402176c-1.5351105 -4.562111 -8.041855 -6.2839813 -10.2248535 -10.970505c-2.1829987 -4.6865234 -1.0359955 -12.923546 -2.873108 -17.148628c-1.8371277 -4.2250824 -5.3803253 -4.5095596 -8.149582 -8.201851c-2.7692566 -3.6922913 -4.59671 -10.64135 -8.465973 -13.951893c-3.8692627 -3.3105469 -10.569443 -2.7780037 -14.749588 -5.911381c-4.1801453 -3.133377 -6.2397614 -11.352844 -10.331284 -12.8888855c-4.091507 -1.5360374 -8.529007 5.119625 -14.217834 3.6726494c-5.6888275 -1.4469795 -14.359161 -10.419533 -19.915161 -12.354511c-5.5559845 -1.9349823 -5.3707123 1.420044 -13.420776 0.7446289c-8.050064 -0.67541885 -26.65207 -6.6955204 -34.87961 -4.7971325c-8.227539 1.8983898 -9.408592 12.38011 -14.485619 16.18746c-5.077034 3.807354 -12.292679 3.7279434 -15.9765625 6.6566544c-3.6838837 2.928711 -1.2002563 7.2769623 -6.126732 10.915604c-4.926468 3.6386414 -17.431908 3.532013 -23.432098 10.916252c-6.0001984 7.3842316 -8.27269 21.292252 -12.569073 33.38916c-4.2963867 12.096901 -13.518856 27.83155 -13.20924 39.19227c0.3096161 11.360718 4.3195915 20.113403 15.066933 28.97203c10.747337 8.858627 30.938713 17.513107 49.417107 24.179749c18.478394 6.666641 39.556877 16.874588 61.453255 15.820068c21.896362 -1.0545349 53.9124 -7.477295 69.92499 -22.147217c16.012604 -14.669922 21.623093 -52.159927 26.150558 -65.872345z" fill-rule="evenodd"/></g><path fill="#00365b" d="m160.5304 171.55293c-1.9199371 -7.03981 -3.840332 -17.119858 -8.640411 -27.83989c-4.8000946 -10.720047 -13.759842 -26.240166 -20.16011 -36.480324c-6.400261 -10.240158 -12.641289 -19.04068 -18.241463 -24.960625c-5.6001816 -5.9199524 -14.879707 -12.319336 -15.359581 -10.559059c-0.4798813 1.7602768 6.8801346 12.320648 12.480316 21.120735c5.600174 8.800087 14.720467 20.800087 21.120728 31.679787c6.4002686 10.879707 12.000885 23.358711 17.280838 33.598427c5.2799683 10.239716 12.479004 25.599747 14.398956 27.83989c1.9199524 2.240158 -0.95932007 -7.359131 -2.8792725 -14.398941z" fill-rule="evenodd"/><g filter="url(#shadowFilter-p.11)"><use xlink:href="#p.11" transform="matrix(1.0 0.0 0.0 1.0 6.996957533628609 -3.8784769213418633)"/></g><defs><filter id="shadowFilter-p.11" filterUnits="userSpaceOnUse"><feGaussianBlur in="SourceAlpha" stdDeviation="5.0" result="blur"/><feComponentTransfer in="blur" color-interpolation-filters="sRGB"><feFuncR type="linear" slope="0" intercept="0.0"/><feFuncG type="linear" slope="0" intercept="0.0"/><feFuncB type="linear" slope="0" intercept="0.0"/><feFuncA type="linear" slope="0.5" intercept="0"/></feComponentTransfer></filter></defs><g id="p.11"><defs><linearGradient id="p.12" gradientUnits="userSpaceOnUse" gradientTransform="matrix(14.712876424201164 0.0 0.0 14.712876424201164 0.0 0.0)" spreadMethod="pad" x1="17.969218824029493" y1="24.272465278428427" x2="28.3729252176024" y2="13.869022293043987"><stop offset="0.0" stop-color="#f1c232"/><stop offset="0.5" stop-color="#f1c232"/><stop offset="0.99999994" stop-color="#fff2cc"/><stop offset="1.0" stop-color="#737373"/></linearGradient></defs><path fill="url(#p.12)" d="m191.56566 240.72606c-2.0800476 -12.96019 -7.038498 -34.24147 -1.9186401 -49.92125c5.119858 -15.679794 22.077866 -34.397644 32.637802 -44.157486c10.559921 -9.759842 21.761597 -11.521439 30.721786 -14.401581c8.96019 -2.880127 13.119431 -6.239273 23.039352 -2.8792572c9.919952 3.3600159 27.840332 15.9995575 36.480316 23.039368c8.639984 7.03981 10.559509 7.199478 15.359589 19.199478c4.8000793 12.0 14.080933 37.92038 13.4409485 52.80052c-0.63998413 14.880142 -10.400696 28.480316 -17.280853 36.480316c-6.880127 8.0 -12.800079 8.319763 -24.0 11.519684c-11.19989 3.1999207 -26.8797 8.319763 -43.199463 7.679779c-16.319778 -0.63998413 -43.83902 -4.9597473 -54.719162 -11.519684c-10.880142 -6.559906 -8.481628 -14.8797 -10.561676 -27.83989z" fill-rule="evenodd"/></g><path fill="#00365b" d="m192.87314 183.27318c0.64042664 1.119873 0.16011047 -29.281265 0 -46.08136c-0.16009521 -16.800087 0.15966797 -41.279526 -0.9606323 -54.719162c-1.120285 -13.439629 -5.12117 -26.558613 -5.761154 -25.918633c-0.63998413 0.63998413 1.441391 17.438759 1.9212646 29.75853c0.47987366 12.319771 0.15791321 28.0 0.9580078 44.160103c0.80007935 16.16011 3.2021027 51.680664 3.842514 52.80052z" fill-rule="evenodd"/><path fill="#00365b" d="m182.07437 205.31592c0 -4.799652 -1.4418182 -32.1588 -6.7217865 -53.75853c-5.2799683 -21.599731 -18.87796 -60.159668 -24.958008 -75.8399c-6.0800476 -15.680225 -12.642166 -24.321083 -11.522308 -18.24147c1.1198578 6.0796165 12.161407 34.23928 18.24147 54.719162c6.0800476 20.479881 14.078735 52.639977 18.238846 68.1601c4.160095 15.520126 6.7217865 29.760284 6.7217865 24.960632z" fill-rule="evenodd"/><path fill="#00365b" d="m152.64195 175.39441c-0.16011047 -1.9199524 -13.761154 -21.599304 -22.08136 -30.719162c-8.320213 -9.119858 -18.72004 -18.720032 -27.839905 -23.999992c-9.119858 -5.2799683 -28.159225 -10.07962 -26.879265 -7.6797943c1.2799683 2.399826 25.27909 14.87883 34.55906 22.078743c9.279961 7.1999054 14.08049 14.400696 21.120728 21.120728c7.0402527 6.720047 21.280853 21.11943 21.120743 19.199478z" fill-rule="evenodd"/><path fill="#00365b" d="m126.89239 164.50677c0.16010284 -0.9601898 -19.359138 -13.120728 -30.719162 -17.280838c-11.360016 -4.160095 -37.280838 -8.639984 -37.44094 -7.679779c-0.16010666 0.9601898 25.120293 9.280838 36.480316 13.440933c11.360016 4.1601105 31.519684 12.479889 31.679787 11.519684z" fill-rule="evenodd"/><defs><linearGradient id="p.13" gradientUnits="userSpaceOnUse" gradientTransform="matrix(-14.712876608982983 0.0 0.0 14.712876608982983 0.0 0.0)" spreadMethod="pad" x1="-8.991118547475683" y1="24.272464973585915" x2="1.4125882380703803" y2="13.869022118860293"><stop offset="0.0" stop-color="#f1c232"/><stop offset="0.5" stop-color="#f1c232"/><stop offset="0.99999994" stop-color="#fff2cc"/><stop offset="1.0" stop-color="#737373"/></linearGradient></defs><path fill="url(#p.13)" d="m205.09846 240.72606c2.0800476 -12.96019 7.038498 -34.24147 1.9186401 -49.92125c-5.119858 -15.679794 -22.077866 -34.397644 -32.637802 -44.157486c-10.559921 -9.759842 -21.761597 -11.521439 -30.721786 -14.401581c-8.96019 -2.880127 -13.119415 -6.239273 -23.039368 -2.8792572c-9.919945 3.3600159 -27.840332 15.9995575 -36.480316 23.039368c-8.6399765 7.03981 -10.559486 7.199478 -15.359573 19.199478c-4.800091 12.0 -14.080929 37.92038 -13.4409485 52.80052c0.63998413 14.880142 10.400703 28.480316 17.280838 36.480316c6.880142 8.0 12.800087 8.319763 24.0 11.519684c11.199913 3.1999207 26.879707 8.319763 43.19948 7.679779c16.319778 -0.63998413 43.83902 -4.9597473 54.719162 -11.519684c10.880142 -6.559906 8.481628 -14.8797 10.561676 -27.83989z" fill-rule="evenodd"/><path fill="#fff2cc" d="m185.2115 216.46347c-6.399826 -1.2799683 -10.559494 -7.8394623 -11.519684 -11.519684c-0.9601898 -3.6802216 1.9186401 -8.321518 5.7585297 -10.561676c3.8398895 -2.240158 12.960632 -3.8394623 17.280838 -2.8792725c4.320221 0.9602051 6.08049 5.1203003 8.640427 8.640427c2.5599213 3.5201263 10.079178 9.760284 6.719162 12.480316c-3.3600159 2.7200317 -20.479446 5.119858 -26.879272 3.8398895z" fill-rule="evenodd"/><g filter="url(#shadowFilter-p.14)"><use xlink:href="#p.14" transform="matrix(1.0 0.0 0.0 1.0 6.4435336696194225 -2.735117994894193)"/></g><defs><filter id="shadowFilter-p.14" filterUnits="userSpaceOnUse"><feGaussianBlur in="SourceAlpha" stdDeviation="5.0" result="blur"/><feComponentTransfer in="blur" color-interpolation-filters="sRGB"><feFuncR type="linear" slope="0" intercept="0.0"/><feFuncG type="linear" slope="0" intercept="0.0"/><feFuncB type="linear" slope="0" intercept="0.0"/><feFuncA type="linear" slope="0.5" intercept="0"/></feComponentTransfer></filter></defs><g id="p.14"><defs><linearGradient id="p.15" gradientUnits="userSpaceOnUse" gradientTransform="matrix(12.289225257266274 0.0 0.0 12.289225257266274 0.0 0.0)" spreadMethod="pad" x1="24.884715468201453" y1="28.281444788244386" x2="24.884850621163668" y2="15.992219531721295"><stop offset="0.0" stop-color="#fff2cc"/><stop offset="0.5" stop-color="#f1c232"/><stop offset="0.99999994" stop-color="#f1c232"/><stop offset="1.0" stop-color="#737373"/></linearGradient></defs><path fill="url(#p.15)" d="m191.57092 196.577c-3.3595886 0.7996521 -1.7594147 12.478561 -11.519684 17.278214c-9.760284 4.799652 -31.041992 5.1194153 -47.041992 11.519684c-16.000008 6.4002533 -39.998253 16.16185 -48.958008 26.881882c-8.959755 10.720032 -11.040245 24.958435 -4.8005295 37.438324c6.239723 12.479889 25.919075 28.320648 42.238846 37.44095c16.31977 9.1203 43.51969 15.04068 55.679787 17.280823c12.16011 2.2401733 11.680664 -4.1596375 17.280838 -3.8398743c5.600174 0.31976318 1.1203003 10.398499 16.32022 5.7585144c15.199905 -4.639984 59.039352 -21.11853 74.87926 -33.59842c15.839905 -12.479858 20.32022 -30.080475 20.160095 -41.280823c-0.16009521 -11.200348 -10.560791 -18.081375 -21.120728 -25.92128c-10.559937 -7.8398895 -29.758957 -16.15834 -42.238846 -21.118103c-12.479874 -4.9597626 -25.600174 -6.08049 -32.64041 -8.640427c-7.0402527 -2.5599213 -6.561249 -3.5192413 -9.601059 -6.7191467c-3.039795 -3.1999207 -5.2782135 -13.279968 -8.637787 -12.480316z" fill-rule="evenodd"/></g><path fill="#f6b26b" d="m194.27187 197.75262c-3.5196838 0.16011047 -5.4383087 14.079178 -13.438309 18.238846c-8.0 4.159668 -27.521439 2.0791779 -34.56169 6.719162c-7.0402374 4.639984 -8.639969 17.600616 -7.679779 21.120728c0.9601898 3.5201263 11.200775 -2.399826 13.440933 0c2.240158 2.399826 -2.3998108 12.318909 0 14.398956c2.399826 2.0800476 11.99913 -5.4387665 14.398956 -1.9186401c2.399826 3.520111 -1.600174 18.399384 0 23.039368c1.600174 4.639984 6.0809326 6.0805054 9.601044 4.800537c3.5201263 -1.2799683 9.439636 -7.3604736 11.519699 -12.480316c2.0800476 -5.119873 -1.279541 -20.798782 0.96061707 -18.238846c2.240158 2.5599213 7.520569 28.478561 12.480316 33.598434c4.9597626 5.1198425 12.79834 -0.15924072 17.278214 -2.8792725c4.479889 -2.7200317 8.16098 -8.16098 9.601059 -13.4409485c1.4400635 -5.2799683 -1.6006165 -12.958893 -0.9606323 -18.238846c0.63998413 -5.2799683 4.6404266 -8.16098 4.800522 -13.4409485c0.16011047 -5.2799683 1.1203003 -14.238846 -3.8398895 -18.238846c-4.96019 -4.0 -20.32109 -1.9212646 -25.921265 -5.761154c-5.600174 -3.8398895 -4.1601105 -17.438324 -7.6797943 -17.278214z" fill-rule="evenodd"/><path fill="#0061a1" d="m174.11046 224.63167c-0.47987366 -1.4400635 -16.318909 1.2799683 -22.07875 3.8399048c-5.759842 2.5599213 -12.96019 10.079605 -12.480301 11.519684c0.47987366 1.4400635 9.599731 -0.31933594 15.359573 -2.8792725c5.759842 -2.5599213 19.679352 -11.040237 19.199478 -12.480316z" fill-rule="evenodd"/><path fill="#0061a1" d="m175.0713 231.35193c-1.1198578 -0.31977844 -5.5988617 9.601044 -10.5590515 13.440933c-4.96019 3.8399048 -20.32196 9.278656 -19.202103 9.598434c1.1198578 0.31977844 20.96106 -3.8398895 25.921265 -7.6797943c4.96019 -3.8398895 4.9597473 -15.03981 3.8398895 -15.359573z" fill-rule="evenodd"/><path fill="#00365b" d="m205.5338 164.66733c-0.8000946 -1.600174 -0.47988892 -22.080933 3.8398895 -33.60106c4.3197784 -11.520119 19.998688 -33.59973 22.078735 -35.519684c2.0800629 -1.9199448 -6.7187195 16.479881 -9.598419 24.0c-2.8796997 7.5201263 -4.9597626 13.600616 -7.6797943 21.120743c-2.7200317 7.520111 -7.840332 25.600174 -8.640411 24.0z" fill-rule="evenodd"/><path fill="#0061a1" d="m186.5923 237.11285c-1.600174 0 -8.96019 13.278229 -16.320206 21.118103c-7.360016 7.839905 -29.440079 25.921265 -27.839905 25.921265c1.600174 0 30.080933 -18.08136 37.44095 -25.921265c7.360016 -7.8398743 8.319336 -21.118103 6.719162 -21.118103z" fill-rule="evenodd"/><path fill="#0061a1" d="m191.39282 239.99179c-1.2799683 2.0800629 -2.881012 23.681122 -1.9212494 25.921265c0.9597473 2.2401733 7.3595734 -8.160095 7.679779 -12.480316c0.32022095 -4.3202057 -4.4785614 -15.520996 -5.7585297 -13.4409485z" fill-rule="evenodd"/><path fill="#0061a1" d="m199.07109 236.1529c-0.47988892 1.9199371 4.9610596 31.520996 9.601044 41.280823c4.639984 9.759857 17.758972 19.198181 18.238846 17.278229c0.47987366 -1.9199524 -10.7196045 -19.038055 -15.359573 -28.797913c-4.639984 -9.759827 -12.0004425 -31.681091 -12.480316 -29.761139z" fill-rule="evenodd"/><path fill="#0061a1" d="m205.79134 235.19226c0 1.5997314 7.199478 15.83989 11.519684 20.160095c4.320221 4.320221 14.401581 7.360901 14.401581 5.7611694c0 -1.5997314 -10.08136 -11.039383 -14.401581 -15.359589c-4.3202057 -4.3202057 -11.519684 -12.161423 -11.519684 -10.561676z" fill-rule="evenodd"/><path fill="#0061a1" d="m209.63255 229.43329c-0.48031616 0.9601898 7.6802216 9.119858 12.480301 11.519684c4.8000946 2.399826 15.839905 3.8394623 16.32022 2.8792725c0.48031616 -0.9602051 -8.638229 -6.2406006 -13.438324 -8.640427c-4.8000946 -2.399826 -14.881897 -6.7187195 -15.362198 -5.7585297z" fill-rule="evenodd"/><path fill="#0061a1" d="m193.31036 335.03094c-1.9199371 -0.32019043 -1.7585297 7.5201416 -5.7585297 8.640411c-4.0 1.1203003 -18.401566 1.7611694 -18.24147 -1.9186096c0.16011047 -3.6798096 11.842087 -20.319794 19.202103 -20.160126c7.360016 0.15966797 23.198166 17.118134 24.958008 21.118134c1.7598419 4.0 -11.03894 4.1618347 -14.398956 2.8818665c-3.3600159 -1.2799683 -3.8412018 -10.241455 -5.761154 -10.561676z" fill-rule="evenodd"/><path fill="#0061a1" d="m203.87292 191.99234c-0.31977844 -0.9601898 13.760284 -13.120728 20.160095 -17.280838c6.399826 -4.160095 17.919083 -8.639984 18.238846 -7.6797943c0.31977844 0.9602051 -9.92038 9.280853 -16.320206 13.4409485c-6.399826 4.1601105 -21.758972 12.479874 -22.078735 11.519684z" fill-rule="evenodd"/><path fill="#0061a1" d="m215.15457 201.72508c-0.40582275 -1.1675415 13.605911 -10.315247 21.931122 -14.013702c8.325195 -3.6984558 27.614288 -9.344589 28.020111 -8.177048c0.40582275 1.1675415 -17.259964 11.483841 -25.585175 15.182297c-8.325211 3.6984558 -23.960236 8.175995 -24.366058 7.0084534z" fill-rule="evenodd"/><path fill="#0061a1" d="m220.73141 209.6693c1.120285 -0.63998413 21.279953 -1.438324 27.83989 -0.9580078c6.5599365 0.48031616 12.639969 3.1999054 11.519699 3.8398895c-1.1203003 0.63998413 -11.681549 0.48031616 -18.241486 0c-6.5599365 -0.48031616 -22.238403 -2.2418976 -21.118103 -2.8818817z" fill-rule="evenodd"/><path fill="#0061a1" d="m179.61177 191.99234c0.31976318 -0.9601898 -13.760284 -13.120728 -20.16011 -17.280838c-6.399826 -4.160095 -17.919067 -8.639984 -18.238846 -7.6797943c-0.31976318 0.9602051 9.920395 9.280853 16.320206 13.4409485c6.399826 4.1601105 21.758972 12.479874 22.07875 11.519684z" fill-rule="evenodd"/><path fill="#0061a1" d="m171.14781 199.12665c0.40582275 -1.1675415 -13.605911 -10.315231 -21.931107 -14.013687c-8.325211 -3.6984558 -27.614311 -9.3446045 -28.020134 -8.177063c-0.40582275 1.1675568 17.259987 11.483856 25.585182 15.182312c8.325211 3.6984558 23.960236 8.17598 24.366058 7.008438z" fill-rule="evenodd"/><path fill="#0061a1" d="m165.5713 210.77034c-1.1203003 -0.63998413 -21.279968 -1.438324 -27.83989 -0.9580078c-6.5599365 0.48031616 -12.639992 3.1999207 -11.519691 3.8399048c1.1203003 0.63998413 11.681541 0.48031616 18.241463 0c6.5599365 -0.48031616 22.238419 -2.2419128 21.118118 -2.881897z" fill-rule="evenodd"/><g filter="url(#shadowFilter-p.16)"><use xlink:href="#p.16" transform="matrix(1.0 0.0 0.0 1.0 4.781523937315453 -1.4618584740506069)"/></g><defs><filter id="shadowFilter-p.16" filterUnits="userSpaceOnUse"><feGaussianBlur in="SourceAlpha" stdDeviation="2.0" result="blur"/><feComponentTransfer in="blur" color-interpolation-filters="sRGB"><feFuncR type="linear" slope="0" intercept="0.0"/><feFuncG type="linear" slope="0" intercept="0.0"/><feFuncB type="linear" slope="0" intercept="0.0"/><feFuncA type="linear" slope="0.5" intercept="0"/></feComponentTransfer></filter></defs><g id="p.16"><path fill="#000000" fill-opacity="0.0" d="m231.71405 439.8622l191.77954 0l0 70.86612l-191.77954 0z" fill-rule="evenodd"/><path fill="#434343" d="m270.3078 492.5341q0 5.265625 -2.4375 9.96875q-2.421875 4.6875 -6.453125 7.625q-4.03125 2.9374695 -8.640625 3.0624695q-0.859375 12.875 -3.9375 21.5q-3.0625 8.640625 -8.984375 8.640625q-3.609375 0 -5.34375 -2.609375q-1.734375 -2.59375 -1.734375 -7.203125q0 -6.53125 3.0 -15.234375q3.0 -8.6874695 9.265625 -19.15622q0 -9.734375 -0.125 -13.53125q-0.078125 -1.9375 1.515625 -3.0625q1.609375 -1.140625 4.015625 -1.140625q1.390625 0 2.015625 0.578125q0.640625 0.5625 0.71875 2.234375q0 1.65625 0.0625 2.453125q2.140625 -2.65625 4.203125 -3.8125q2.0625 -1.171875 4.390625 -1.171875q3.734375 0 6.09375 3.0q2.375 2.984375 2.375 7.859375zm-17.203125 14.265625q2.40625 -0.53125 4.4375 -2.625q2.03125 -2.109375 3.234375 -5.203125q1.203125 -3.109375 1.203125 -6.5q0 -2.0 -0.8125 -3.03125q-0.796875 -1.046875 -2.125 -1.046875q-2.390625 0 -5.796875 5.078125q-0.0625 2.921875 -0.0625 8.59375q0 3.0625 -0.078125 4.734375zm-12.71875 29.984344q1.796875 0 2.984375 -7.828125q1.203125 -7.828125 1.546875 -19.49997q-2.875 6.6718445 -4.53125 12.7343445q-1.671875 6.0625 -1.671875 10.203125q0 2.125 0.5 3.25q0.5 1.140625 1.171875 1.140625zm57.8526 -36.78122q0.859375 0 1.359375 0.796875q0.5 0.796875 0.5 2.203125q0 2.390625 -1.125 4.125q-1.875 2.875 -4.90625 4.46875q-3.03125 1.5937195 -7.21875 1.5937195q-6.40625 0 -9.9375 -3.8280945q-3.53125 -3.828125 -3.53125 -10.359375q0 -4.609375 1.921875 -8.5625q1.9375 -3.96875 5.375 -6.296875q3.4375 -2.34375 7.765625 -2.34375q3.859375 0 6.1875 2.296875q2.34375 2.296875 2.34375 6.234375q0 4.59375 -3.296875 7.90625q-3.296875 3.296875 -11.234375 5.21875q1.59375 3.078125 5.40625 3.078125q2.71875 0 4.484375 -1.265625q1.78125 -1.265625 4.109375 -4.265625q0.796875 -1.0 1.796875 -1.0zm-10.9375 -11.671875q-2.453125 0 -4.15625 2.875q-1.703125 2.859375 -1.703125 6.921875l0 0.140625q3.9375 -0.9375 6.203125 -2.796875q2.265625 -1.875 2.265625 -4.34375q0 -1.265625 -0.703125 -2.03125q-0.703125 -0.765625 -1.90625 -0.765625zm19.208252 24.859344q-2.53125 0 -3.578125 -2.6562195q-1.03125 -2.671875 -1.03125 -8.53125q0 -8.671875 2.46875 -16.46875q0.609375 -1.9375 1.96875 -2.828125q1.359375 -0.90625 3.828125 -0.90625q1.34375 0 1.875 0.34375q0.53125 0.328125 0.53125 1.25q0 1.078125 -1.0 4.8125q-0.671875 2.65625 -1.078125 4.65625q-0.390625 2.0 -0.65625 4.9375q2.203125 -5.734375 4.9375 -9.328125q2.734375 -3.609375 5.359375 -5.140625q2.640625 -1.53125 4.828125 -1.53125q2.140625 0 3.234375 1.109375q1.109375 1.09375 1.109375 3.21875q0 1.734375 -0.734375 6.53125q-0.671875 4.078125 -1.078125 7.71875q-0.390625 3.625 -0.390625 8.078125q0 2.546875 -1.03125 3.6405945q-1.03125 1.09375 -3.375 1.09375q-2.1875 0 -3.1875 -1.125q-1.0 -1.1405945 -1.0 -3.4062195q0 -2.65625 0.921875 -8.796875q0.796875 -5.328125 0.796875 -6.796875q0 -1.0625 -0.71875 -1.0625q-0.875 0 -2.4375 2.234375q-1.5625 2.234375 -3.203125 5.90625q-1.625 3.65625 -2.625 7.71875q-0.734375 3.140625 -1.703125 4.2343445q-0.96875 1.09375 -3.03125 1.09375zm39.91794 1.46875q-3.46875 0 -5.296875 -1.609375q-1.828125 -1.5937195 -1.828125 -3.5937195q0 -1.71875 1.265625 -2.984375q1.265625 -1.28125 3.734375 -1.28125q0.859375 0 2.03125 0.171875q1.171875 0.171875 1.765625 0.234375q-0.0625 -1.734375 -0.765625 -3.265625q-0.703125 -1.53125 -1.765625 -2.96875q-1.0625 -1.4375 -2.0 -2.5q-2.0625 3.9375 -4.109375 6.546875q-2.03125 2.59375 -4.421875 4.921875q-1.203125 1.203125 -2.53125 1.203125q-1.078125 0 -1.734375 -0.765625q-0.671875 -0.765625 -0.671875 -1.90625q0 -1.328125 0.9375 -2.46875l0.859375 -1.0625q3.671875 -4.53125 5.53125 -7.46875q1.203125 -1.9375 2.4375 -4.59375q1.234375 -2.671875 3.234375 -7.265625q1.265625 -2.9375 5.265625 -2.9375q1.859375 0 2.59375 0.34375q0.734375 0.328125 0.734375 1.0625q0 0.390625 -0.265625 1.265625q-0.265625 0.859375 -0.734375 1.734375q-1.203125 2.390625 -1.203125 4.0625q0 1.0 0.703125 2.203125q0.703125 1.1875 2.171875 3.0q2.125 2.796875 3.21875 4.765625q1.109375 1.96875 1.109375 4.296875q0 2.796875 -1.296875 5.296875q-1.296875 2.5 -3.640625 4.0312195q-2.328125 1.53125 -5.328125 1.53125zm37.731354 -14.6562195q0.859375 0 1.359375 0.796875q0.5 0.796875 0.5 2.203125q0 2.390625 -1.125 4.125q-1.875 2.875 -4.90625 4.46875q-3.03125 1.5937195 -7.21875 1.5937195q-6.40625 0 -9.9375 -3.8280945q-3.53125 -3.828125 -3.53125 -10.359375q0 -4.609375 1.921875 -8.5625q1.9375 -3.96875 5.375 -6.296875q3.4375 -2.34375 7.765625 -2.34375q3.859375 0 6.1875 2.296875q2.34375 2.296875 2.34375 6.234375q0 4.59375 -3.296875 7.90625q-3.296875 3.296875 -11.234375 5.21875q1.59375 3.078125 5.40625 3.078125q2.71875 0 4.484375 -1.265625q1.78125 -1.265625 4.109375 -4.265625q0.796875 -1.0 1.796875 -1.0zm-10.9375 -11.671875q-2.453125 0 -4.15625 2.875q-1.703125 2.859375 -1.703125 6.921875l0 0.140625q3.9375 -0.9375 6.203125 -2.796875q2.265625 -1.875 2.265625 -4.34375q0 -1.265625 -0.703125 -2.03125q-0.703125 -0.765625 -1.90625 -0.765625zm1.734375 -10.9375q-0.9375 0 -1.640625 -0.6875q-0.6875 -0.703125 -0.6875 -1.703125q0 -0.46875 0.328125 -1.265625l6.203125 -13.859375q0.59375 -1.34375 1.5625 -1.96875q0.96875 -0.640625 2.171875 -0.640625q1.65625 0 2.953125 1.203125q1.3125 1.203125 1.3125 3.0q0 1.859375 -1.46875 3.734375l-8.59375 11.0625q-0.875 1.125 -2.140625 1.125zm36.598877 22.609375q0.859375 0 1.359375 0.796875q0.5 0.796875 0.5 2.203125q0 2.390625 -1.125 4.125q-1.875 2.875 -4.90625 4.46875q-3.03125 1.5937195 -7.21875 1.5937195q-6.40625 0 -9.9375 -3.8280945q-3.53125 -3.828125 -3.53125 -10.359375q0 -4.609375 1.921875 -8.5625q1.9375 -3.96875 5.375 -6.296875q3.4375 -2.34375 7.765625 -2.34375q3.859375 0 6.1875 2.296875q2.34375 2.296875 2.34375 6.234375q0 4.59375 -3.296875 7.90625q-3.296875 3.296875 -11.234375 5.21875q1.59375 3.078125 5.40625 3.078125q2.71875 0 4.484375 -1.265625q1.78125 -1.265625 4.109375 -4.265625q0.796875 -1.0 1.796875 -1.0zm-10.9375 -11.671875q-2.453125 0 -4.15625 2.875q-1.703125 2.859375 -1.703125 6.921875l0 0.140625q3.9375 -0.9375 6.203125 -2.796875q2.265625 -1.875 2.265625 -4.34375q0 -1.265625 -0.703125 -2.03125q-0.703125 -0.765625 -1.90625 -0.765625z" fill-rule="nonzero"/></g><g filter="url(#shadowFilter-p.17)"><use xlink:href="#p.17" transform="matrix(1.0 0.0 0.0 1.0 1.9225233183132382 -0.5512748177595964)"/></g><defs><filter id="shadowFilter-p.17" filterUnits="userSpaceOnUse"><feGaussianBlur in="SourceAlpha" stdDeviation="5.0" result="blur"/><feComponentTransfer in="blur" color-interpolation-filters="sRGB"><feFuncR type="linear" slope="0" intercept="0.0"/><feFuncG type="linear" slope="0" intercept="0.0"/><feFuncB type="linear" slope="0" intercept="0.0"/><feFuncA type="linear" slope="0.7" intercept="0"/></feComponentTransfer></filter></defs><g id="p.17"><path fill="#000000" fill-opacity="0.0" d="m265.30972 524.85565c35.472443 0 53.20865 1.4015503 70.944885 2.8031616c17.736206 1.4015503 35.472412 2.8031006 70.944855 2.8031006" fill-rule="evenodd"/><path stroke="#434343" stroke-width="4.0" stroke-linejoin="round" stroke-linecap="butt" d="m265.30972 524.85565c35.472443 0 53.20865 1.4015503 70.944885 2.8031616c17.736206 1.4015503 35.472412 2.8031006 70.944855 2.8031006" fill-rule="evenodd"/></g></g></svg>